<?xml version="1.0" standalone="no"?>
<!DOCTYPE svg PUBLIC "-//W3C//DTD SVG 20010904//EN"
 "http://www.w3.org/TR/2001/REC-SVG-20010904/DTD/svg10.dtd">
<svg version="1.0" xmlns="http://www.w3.org/2000/svg"
 width="1080.000000pt" height="1080.000000pt" viewBox="0 0 1080.000000 1080.000000"
 preserveAspectRatio="xMidYMid meet">
<metadata>
Created by potrace 1.11, written by Peter Selinger 2001-2013
</metadata>
<g transform="translate(0.000000,1080.000000) scale(0.100000,-0.100000)"
fill="#000000" stroke="none">
<path d="M5080 10425 c-1607 -132 -3032 -1045 -3838 -2460 -460 -807 -686
-1751 -642 -2675 24 -514 103 -933 264 -1405 421 -1239 1332 -2271 2501 -2836
666 -322 1354 -479 2095 -479 751 0 1432 156 2105 484 1030 501 1858 1357
2328 2406 550 1228 581 2647 85 3885 -754 1884 -2544 3104 -4538 3094 -113 -1
-275 -7 -360 -14z m880 -399 c969 -118 1801 -503 2536 -1173 l79 -73 -46 -47
c-25 -27 -223 -239 -439 -473 -217 -234 -397 -426 -400 -428 -4 -1 -12 30 -19
70 -92 522 -525 1027 -1119 1304 -405 189 -830 274 -1307 261 -290 -8 -507
-42 -766 -121 -787 -239 -1348 -785 -1486 -1446 -27 -131 -25 -430 5 -567 71
-325 237 -612 502 -866 287 -275 653 -474 1080 -588 69 -18 126 -34 128 -35 2
-1 -68 -98 -155 -215 -629 -846 -1004 -1516 -1094 -1952 -17 -85 -20 -129 -17
-264 l3 -161 -504 -544 c-276 -298 -508 -545 -513 -547 -12 -4 -210 197 -334
339 -541 624 -893 1360 -1045 2180 -92 495 -95 1099 -8 1600 288 1671 1468
3043 3060 3558 316 102 648 169 994 201 156 15 706 6 865 -13z m3012 -1691
c868 -1105 1178 -2553 842 -3934 -291 -1196 -1075 -2240 -2144 -2856 -986
-569 -2163 -734 -3276 -460 -516 127 -1053 372 -1482 676 l-113 80 179 192
c98 106 276 298 396 427 120 129 222 236 226 238 4 1 15 -17 24 -41 9 -24 44
-91 78 -148 307 -521 821 -868 1412 -954 144 -21 410 -21 552 0 420 63 802
254 1098 551 296 297 484 663 551 1074 23 143 30 332 16 429 -58 395 -390
1026 -948 1805 -63 87 -113 162 -111 166 2 4 135 150 296 324 199 214 315 331
360 363 221 155 428 376 559 598 39 67 168 212 732 819 376 405 687 733 691
729 4 -4 32 -40 62 -78z"/>
</g>
</svg>
